<?xml version="1.0" standalone="no"?>
<!DOCTYPE svg PUBLIC "-//W3C//DTD SVG 20010904//EN"
 "http://www.w3.org/TR/2001/REC-SVG-20010904/DTD/svg10.dtd">
<svg version="1.0" xmlns="http://www.w3.org/2000/svg"
 width="179.000000pt" height="75.000000pt" viewBox="0 0 179.000000 75.000000"
 preserveAspectRatio="xMidYMid meet" style="background-color:#fff;">

<g transform="translate(0.000000,75.000000) scale(0.100000,-0.100000)"
fill="#ffffff" stroke="none">
<path d="M228 737 c-92 -26 -156 -84 -200 -183 -31 -70 -30 -190 1 -256 60
-125 185 -183 306 -143 l40 13 -66 1 c-80 1 -173 43 -219 99 -88 108 -76 282
26 372 51 44 93 60 161 60 143 -1 265 -113 312 -287 30 -111 29 -119 -20 -144
-100 -50 -174 -163 -145 -220 21 -42 33 -32 28 23 -3 44 0 59 20 88 24 36 110
100 134 100 15 0 21 -70 16 -194 l-3 -69 166 164 c170 168 219 225 231 273 4
16 33 58 65 94 32 37 68 84 79 105 l21 37 -214 0 c-210 0 -214 0 -235 -23
l-22 -23 62 -12 c81 -15 147 -50 176 -92 32 -48 28 -66 -20 -97 -39 -24 -227
-103 -247 -103 -4 0 -15 35 -24 78 -34 157 -115 276 -221 323 -61 26 -146 33
-208 16z m869 -149 c-14 -24 -37 -54 -51 -67 -25 -24 -26 -24 -26 -4 0 29 -42
77 -82 94 -32 13 -28 14 72 19 58 3 107 4 109 3 2 -1 -8 -21 -22 -45z m-148
-210 c-12 -24 -77 -99 -145 -168 l-124 -125 0 102 0 102 58 17 c66 19 156 62
192 93 38 31 43 25 19 -21z" fill="#eb5513"/>
<path d="M1275 381 c-22 -11 -32 -20 -22 -20 22 -1 21 -8 -4 -73 -19 -50 -24
-55 -62 -65 -61 -17 -122 -65 -157 -125 -38 -66 -37 -94 4 -91 53 4 147 99
146 147 -1 15 -7 9 -22 -21 -22 -46 -79 -103 -103 -103 -11 0 -15 11 -15 37 0
31 8 44 49 84 29 28 65 52 87 58 21 6 39 9 41 7 2 -1 -15 -49 -37 -106 -22
-56 -39 -105 -36 -107 5 -5 76 24 76 31 0 3 -7 3 -15 0 -22 -9 -19 15 16 105
25 63 35 78 48 73 13 -5 14 -3 4 10 -10 12 -7 30 17 96 16 45 29 82 27 82 -1
0 -20 -9 -42 -19z" fill="#6c26e0"/>
<path d="M1382 230 c-66 -27 -142 -126 -142 -186 0 -30 24 -48 56 -40 34 9
118 88 112 106 -3 9 -11 4 -23 -17 -30 -50 -96 -80 -108 -49 -17 45 65 166
111 166 24 0 29 -19 10 -39 -11 -11 -9 -11 10 -2 13 7 26 19 29 27 7 18 42 18
49 0 6 -16 -22 -129 -42 -169 l-15 -28 42 21 c75 39 150 120 178 193 l11 27
-49 0 c-42 0 -49 -3 -60 -26 -14 -31 -9 -41 9 -19 7 8 25 15 41 15 l29 0 -15
-37 c-18 -43 -60 -90 -105 -116 -16 -10 -30 -16 -30 -14 0 2 9 30 20 62 21 62
26 120 11 129 -5 4 -21 2 -35 -4 -16 -6 -27 -6 -31 0 -8 12 -32 12 -63 0z" fill="#6c26e0"/>
<path d="M1724 230 c-25 -10 -64 -57 -64 -76 0 -7 8 -29 17 -48 16 -34 16 -37
-3 -57 -15 -17 -26 -20 -57 -15 -41 7 -48 -7 -14 -28 13 -8 26 -6 54 9 48 26
61 60 43 115 -10 30 -11 46 -3 58 13 21 43 28 53 12 5 -7 13 -3 24 14 16 25
16 26 -6 25 -13 0 -33 -4 -44 -9z" fill="#6c26e0"/>
<path d="M1328 143 c6 -2 18 -2 25 0 6 3 1 5 -13 5 -14 0 -19 -2 -12 -5z" fill="#6c26e0"/>
</g>
</svg>
